<svg height="512pt" viewBox="-63 0 512 512" width="512pt" xmlns="http://www.w3.org/2000/svg"><g fill-rule="evenodd"><path d="m193.234375 0c-106.546875 0-193.234375 86.6875-193.234375 193.234375 0 75.769531 44.210938 144.378906 112.941406 175.800781l13.40625 25.824219c2.546875 4.902344 8.582032 6.8125 13.484375 4.269531 4.902344-2.546875 6.8125-8.582031 4.265625-13.484375l-15.015625-28.925781c-1.058593-2.035156-2.78125-3.648438-4.886719-4.5625-63.296874-27.539062-104.195312-89.917969-104.195312-158.921875 0-95.519531 77.714844-173.234375 173.234375-173.234375 95.527344 0 173.238281 77.714844 173.238281 173.234375 0 69.003906-40.898437 131.382813-104.195312 158.921875-2.105469.914062-3.828125 2.527344-4.886719 4.5625l-64.15625 123.578125-12.269531-23.640625c-2.546875-4.902344-8.582032-6.8125-13.484375-4.265625-4.902344 2.542969-6.8125 8.578125-4.265625 13.480469l21.144531 40.734375c1.722656 3.316406 5.144531 5.394531 8.875 5.394531 3.734375 0 7.15625-2.078125 8.875-5.394531l71.421875-137.570313c68.730469-31.421875 112.941406-100.03125 112.941406-175.800781 0-106.546875-86.683594-193.234375-193.238281-193.234375zm0 0"/><path d="m327.5 193.234375c0-74.03125-60.230469-134.261719-134.265625-134.261719-74.03125 0-134.261719 60.230469-134.261719 134.261719 0 74.035156 60.230469 134.265625 134.261719 134.265625 74.035156 0 134.265625-60.230469 134.265625-134.265625zm-248.527344 0c0-63.003906 51.257813-114.261719 114.265625-114.261719 63.003907 0 114.265625 51.257813 114.265625 114.261719 0 63.007813-51.261718 114.265625-114.269531 114.265625-63.003906 0-114.261719-51.257812-114.261719-114.265625zm0 0"/><path d="m153.65625 415.757812c-5.507812 0-10 4.492188-10 10 0 5.507813 4.492188 10 10 10s10-4.492187 10-10c0-5.507812-4.492188-10-10-10zm0 0"/></g></svg>